<?xml version="1.0" standalone="no"?>
<!DOCTYPE svg PUBLIC "-//W3C//DTD SVG 20010904//EN"
 "http://www.w3.org/TR/2001/REC-SVG-20010904/DTD/svg10.dtd">
<svg version="1.0" xmlns="http://www.w3.org/2000/svg"
 width="512.000000pt" height="512.000000pt" viewBox="0 0 512.000000 512.000000"
 preserveAspectRatio="xMidYMid meet">
<metadata>
Created by potrace 1.14, written by Peter Selinger 2001-2017
</metadata>
<g transform="translate(0.000000,512.000000) scale(0.100000,-0.100000)"
fill="#000000" stroke="none">
<path d="M2468 5055 c-2 -1 -37 -5 -78 -8 -41 -3 -109 -13 -150 -22 -41 -9
-85 -18 -97 -21 -57 -11 -210 -71 -318 -125 -160 -79 -286 -171 -420 -304
-579 -578 -643 -1481 -153 -2137 55 -74 213 -240 279 -293 57 -46 215 -148
281 -181 137 -69 336 -136 442 -150 22 -3 43 -7 46 -9 4 -2 47 -7 96 -11 49
-3 92 -8 97 -11 4 -2 7 -64 7 -136 l0 -132 -722 1 c-398 0 -733 -3 -745 -7
-12 -4 -25 -18 -29 -31 -4 -13 -8 -137 -8 -277 l-1 -255 -46 -11 c-75 -20
-140 -57 -200 -115 -179 -174 -178 -458 2 -630 218 -210 581 -143 706 129 33
72 38 99 37 206 0 82 -3 97 -36 165 -60 124 -187 228 -300 246 -37 6 -38 8
-39 48 -2 138 0 397 4 403 3 5 313 8 689 8 l683 -1 0 -224 0 -225 -25 -3 c-14
-2 -57 -19 -96 -36 -128 -60 -220 -176 -250 -317 -6 -32 -6 -137 1 -173 16
-82 86 -195 154 -251 171 -141 430 -130 588 25 176 172 179 453 8 625 -60 59
-109 89 -195 116 l-55 17 0 223 0 224 687 0 688 0 1 -40 c0 -49 0 -362 0 -391
-1 -17 -9 -23 -39 -28 -61 -9 -156 -63 -210 -117 -148 -149 -173 -376 -61
-550 85 -133 251 -216 404 -203 109 9 221 62 289 137 29 32 88 123 93 142 1 5
9 35 16 65 55 224 -92 466 -321 524 l-47 12 -1 255 c0 140 -4 264 -8 277 -4
13 -17 27 -29 31 -12 4 -347 7 -745 7 l-723 -1 3 135 3 135 79 7 c386 35 727
192 997 458 142 140 228 257 319 434 162 313 212 682 145 1061 -13 76 -74 260
-114 347 -141 307 -372 568 -646 730 -135 80 -370 175 -477 193 -18 3 -40 8
-48 10 -17 4 -69 12 -138 21 -50 6 -269 13 -274 9z"/>
</g>
</svg>
